<?xml version="1.0" encoding="UTF-8"?>
<svg id="Layer_1" xmlns="http://www.w3.org/2000/svg" xmlns:xlink="http://www.w3.org/1999/xlink" version="1.1" viewBox="0 0 1794 1794">
  <!-- Generator: Adobe Illustrator 30.0.0, SVG Export Plug-In . SVG Version: 2.1.1 Build 123)  -->
  <defs>
    <style>
      .st0, .st1, .st2, .st3, .st4, .st5, .st6, .st7, .st8 {
        fill: none;
      }

      .st1, .st9, .st2, .st3, .st4, .st10, .st5, .st11 {
        stroke-miterlimit: 10;
      }

      .st1, .st9, .st2, .st3, .st4, .st7, .st8, .st11 {
        stroke-width: 2px;
      }

      .st1, .st2, .st6, .st7, .st8 {
        stroke-linecap: round;
      }

      .st1, .st3 {
        stroke: #eef5ff;
      }

      .st9, .st2, .st4, .st6, .st11 {
        stroke: #0e61fe;
      }

      .st9, .st12, .st11 {
        fill: #eef5ff;
      }

      .st13, .st14 {
        fill: #0e61fe;
      }

      .st15 {
        clip-path: url(#clippath-1);
      }

      .st16 {
        clip-path: url(#clippath-2);
      }

      .st17, .st10 {
        fill: #0f62fe;
      }

      .st14, .st11 {
        fill-rule: evenodd;
      }

      .st10 {
        stroke-width: 1.01px;
      }

      .st10, .st8 {
        stroke: #0f62fe;
      }

      .st18 {
        clip-path: url(#clippath);
      }

      .st5 {
        stroke: #525252;
      }

      .st6 {
        stroke-width: 8px;
      }

      .st7 {
        stroke: #edf5ff;
      }
    </style>
    <clipPath id="clippath">
      <rect class="st0" width="1794" height="1794"/>
    </clipPath>
    <clipPath id="clippath-1">
      <path class="st0" d="M0,260.25v1536h1794V260.25H0ZM1281.25,1283.5h-766v-765.5h766v765.5Z"/>
    </clipPath>
    <clipPath id="clippath-2">
      <rect class="st0" y="260.25" width="1796" height="1536"/>
    </clipPath>
  </defs>
  <g class="st18">
    <g>
      <rect class="st12" width="1794" height="1794"/>
      <g class="st15">
        <g>
          <g>
            <circle class="st4" cx="1026" cy="1028.25" r="1024"/>
            <circle class="st5" cx="1026" cy="36.25" r="32"/>
            <circle class="st4" cx="898" cy="1028.25" r="896"/>
            <circle class="st4" cx="770" cy="1028.25" r="768"/>
            <g>
              <g>
                <circle class="st4" cx="642" cy="1028.25" r="640"/>
                <circle class="st4" cx="1250" cy="1028.25" r="32"/>
              </g>
              <g>
                <path class="st4" d="M378.49,1595.34c-72.24-43.27-134.8-104.99-179.89-183.09-141.38-244.89-57.48-558.02,187.41-699.41,244.89-141.38,558.02-57.48,699.41,187.41"/>
                <circle class="st4" cx="701.25" cy="1137.42" r="444.18"/>
                <circle class="st4" cx="762.36" cy="1093.8" r="377.04"/>
                <circle class="st4" cx="821.3" cy="1058.22" r="306.98"/>
                <g>
                  <circle class="st0" cx="863.7" cy="1028.25" r="256"/>
                  <circle class="st0" cx="669.71" cy="916.25" r="32"/>
                </g>
                <g>
                  <circle class="st0" cx="919.13" cy="996.25" r="192"/>
                  <circle class="st0" cx="839.13" cy="857.68" r="32"/>
                </g>
                <circle class="st0" cx="974.55" cy="964.25" r="128" transform="translate(-396.39 971.53) rotate(-45)"/>
              </g>
            </g>
          </g>
          <rect class="st12" x="771" y="1285.25" width="510" height="255"/>
        </g>
      </g>
      <path class="st13" d="M257,261.25h482s-256-6-482,196v-196Z"/>
      <path class="st13" d="M1539,1028.25v257h-44.62s42.74-102.15,44.62-257Z"/>
      <path class="st13" d="M1794,1028.25v257h-37.62s35.09-88,37.62-257Z"/>
      <rect class="st12" x="1282.25" y="1285.5" width="509.75" height="510"/>
      <path class="st12" d="M1008,1541.25h-237v110s133-24,237-110Z"/>
      <rect class="st12" x="257.5" y="1028.25" width="256.5" height="257"/>
      <rect class="st12" y="261.25" width="769" height="1022.5"/>
      <rect class="st12" x="258" y="517.25" width="257" height="765"/>
      <rect class="st12" x="516" y="1285.5" width="257" height="257"/>
      <rect class="st12" x="12.25" y="1285.01" width="245.95" height="508.99"/>
      <rect class="st12" x="258" y="1540.25" width="256" height="255"/>
      <polygon class="st12" points="534 1650.25 534 1540.25 771 1540.25 771 1577.16 534 1650.25"/>
      <polygon class="st12" points="514 1706.25 514 1795.25 751 1795.25 751 1765.38 514 1706.25"/>
      <g class="st16">
        <g>
          <g>
            <line class="st4" x1="2.25" y1="1028.25" x2="2.25" y2="1284.25"/>
            <line class="st4" x1="-253" y1="1028.25" x2="-253.38" y2="2821.25"/>
            <line class="st4" x1="-509" y1="261.25" x2="-509" y2="2821.25"/>
            <line class="st4" x1="1538.25" y1="1813.25" x2="1538.25" y2="2821.25"/>
            <line class="st4" x1="1794.25" y1="1812.25" x2="1794.25" y2="2821.25"/>
            <line class="st4" x1="2050.25" y1="261.25" x2="2050.25" y2="1028.5"/>
            <line class="st4" x1="2305.87" y1="261.25" x2="2305.87" y2="2821.25"/>
            <line class="st4" x1="2561.5" y1="261.25" x2="2561.5" y2="2821.25"/>
            <line class="st4" x1="2817.87" y1="261.25" x2="2817.87" y2="2821.25"/>
            <line class="st4" x1="3072.75" y1="261.25" x2="3072.75" y2="2821.25"/>
            <line class="st4" x1="514.25" y1="261.25" x2="514.25" y2="2821.25"/>
            <line class="st4" x1="770.25" y1="1284.25" x2="770.25" y2="2821.25"/>
            <line class="st4" x1="770.25" y1="261.25" x2="770.25" y2="517"/>
            <line class="st4" x1="257.87" y1="1027.75" x2="257.87" y2="2821.25"/>
            <line class="st4" x1="1026.25" y1="261.25" x2="1026.25" y2="517"/>
            <line class="st4" x1="1282.25" y1="261.25" x2="1282.25" y2="2821.25"/>
          </g>
          <g>
            <line class="st4" x1="1283" y1="516.87" x2="514" y2="516.87"/>
            <line class="st4" x1="2051" y1="261.25" x2="-509" y2="261.25"/>
            <line class="st4" x1="2051" y1="2308.5" x2="-509" y2="2308.5"/>
            <line class="st4" x1="2051" y1="2564.5" x2="-509" y2="2564.5"/>
            <line class="st4" x1="2051" y1="2820.5" x2="-509" y2="2820.5"/>
            <line class="st4" x1="2051" y1="3076.12" x2="-509" y2="3076.12"/>
            <line class="st4" x1="2051" y1="3331.75" x2="-509" y2="3331.75"/>
            <line class="st4" x1="2051" y1="3588.12" x2="-509" y2="3588.12"/>
            <line class="st4" x1="2051" y1="3843" x2="-509" y2="3843"/>
            <line class="st4" x1="2051" y1="1284.5" x2="-253" y2="1284.5"/>
            <line class="st4" x1="1282" y1="1540.5" x2="258" y2="1540.5"/>
            <line class="st4" x1="514.32" y1="1028.12" x2="-509" y2="1028.12"/>
            <line class="st4" x1="1794" y1="1028.12" x2="1283" y2="1028.12"/>
            <line class="st4" x1="2051" y1="1796.5" x2="-509" y2="1796.5"/>
            <line class="st4" x1="2051" y1="2052.5" x2="-509" y2="2052.5"/>
          </g>
        </g>
      </g>
      <path class="st17" d="M146,1284.25H0v-256h146s-37,107.84,0,256Z"/>
      <rect class="st13" x="307" y="1592.12" width="159" height="159"/>
      <circle class="st9" cx="515" cy="1540.25" r="32"/>
      <circle class="st13" cx="1530" cy="904.25" r="32"/>
      <line class="st1" x1="386" y1="1644.25" x2="386" y2="1698.25"/>
      <line class="st1" x1="413" y1="1671.25" x2="359" y2="1671.25"/>
      <g>
        <rect class="st9" x="71" y="376.5" width="368" height="548"/>
        <rect class="st13" x="256" y="826.5" width="183" height="98"/>
        <line class="st1" x1="297.5" y1="874.5" x2="375" y2="874.5"/>
        <line class="st4" x1="71" y1="827.5" x2="256" y2="827.5"/>
        <line class="st2" x1="110" y1="874.5" x2="187.5" y2="874.5"/>
        <line class="st2" x1="110" y1="444.5" x2="356.4" y2="444.5"/>
        <line class="st2" x1="110" y1="484.5" x2="392.5" y2="484.5"/>
        <path class="st4" d="M95.67,353.29h-48.23v48.23h48.23v-48.23Z"/>
        <path class="st4" d="M95.67,899.11h-48.23v48.23h48.23v-48.23Z"/>
        <path class="st4" d="M463.62,351.29h-48.23v48.23h48.23v-48.23Z"/>
        <path class="st4" d="M463.62,900.11h-48.23v48.23h48.23v-48.23Z"/>
        <path class="st10" d="M95.68,377.4h-24.12v24.11h24.12v-24.11h0Z"/>
        <path class="st10" d="M95.68,899.11h-24.12v24.11h24.12v-24.11Z"/>
        <path class="st10" d="M439.51,375.4h-24.12v24.11h24.12v-24.11h0Z"/>
        <path class="st9" d="M439.51,900.11h-24.12v24.11h24.12v-24.11Z"/>
        <ellipse class="st4" cx="255.8" cy="657.42" rx="120" ry="118.7"/>
        <path class="st6" d="M334.54,746.98c25.28-21.76,41.26-53.82,41.26-89.56,0-65.55-53.72-118.7-120-118.7"/>
      </g>
      <g>
        <path class="st14" d="M1561.35,1432.99c-1.42-1.92-4.29-1.92-5.71,0l-16.45,2.15h-156.7v256h352v-256h-156.7l-16.45-2.15h0Z"/>
        <path class="st11" d="M1541.35,1392.99c-1.42-1.92-4.29-1.92-5.71,0l-16.45,22.15h-156.7v256h352v-256h-156.7l-16.45-22.15h0Z"/>
        <rect class="st17" x="1538.5" y="1586.62" width="147.56" height="56.89"/>
        <line class="st7" x1="1575.91" y1="1614.17" x2="1641.89" y2="1614.17"/>
        <line class="st8" x1="1396.28" y1="1614.17" x2="1473.61" y2="1614.17"/>
        <line class="st8" x1="1390.94" y1="1454.17" x2="1643.39" y2="1454.17"/>
        <line class="st8" x1="1390.94" y1="1489.73" x2="1622.05" y2="1489.73"/>
        <line class="st8" x1="1390.94" y1="1525.29" x2="1671.83" y2="1525.29"/>
      </g>
      <g>
        <path class="st2" d="M450.5,1090.25v132h-132"/>
        <path class="st2" d="M450.5,1222.25l-132-132"/>
      </g>
      <g>
        <path class="st2" d="M1089,1348.25h132v132"/>
        <path class="st2" d="M1221,1348.25l-132,132"/>
      </g>
      <g>
        <path class="st2" d="M825,1348.25h132v132"/>
        <path class="st2" d="M957,1348.25l-132,132"/>
      </g>
      <circle class="st13" cx="512" cy="1375.25" r="32"/>
      <circle class="st9" cx="1417" cy="624" r="32"/>
      <path class="st13" d="M1796,261.25h-436s451.82,236.12,436,820.75V261.25Z"/>
      <path class="st13" d="M771,1797.25h256v-257s-114,88-256,115v142Z"/>
      <path class="st13" d="M771,1797.25h-256v-142s123,30,256,0v142Z"/>
      <path class="st13" d="M1027,1797.25h256v-197s-122,113-256,150v47Z"/>
      <line class="st3" x1="1027" y1="1541.55" x2="1027" y2="1795.55"/>
      <path class="st13" d="M1283,261.25h-482s256-6,482,196v-196Z"/>
      <polygon class="st12" points="1027.25 305.45 1025.25 304.75 1025.25 261.25 1027.25 261.25 1027.25 305.45"/>
      <line class="st3" x1="770.25" y1="1654.25" x2="770.15" y2="1797.25"/>
      <g>
        <path class="st13" d="M1186.31,1222.54h-12.29v-86h36.86c6.79,0,12.29,5.5,12.29,12.29v30.71c0,6.79-5.5,12.29-12.29,12.29h-24.57v30.71ZM1186.31,1179.54h24.57v-30.71h-24.57v30.71Z"/>
        <polygon class="st13" points="1063.45 1136.54 1054.12 1167.25 1051.17 1179.42 1048.34 1167.25 1038.88 1136.54 1026.6 1136.54 1026.6 1222.54 1038.88 1222.54 1038.88 1173.4 1037.9 1161.11 1041.46 1173.4 1051.17 1201.84 1060.87 1173.4 1064.44 1161.11 1063.45 1173.4 1063.45 1222.54 1075.74 1222.54 1075.74 1136.54 1063.45 1136.54"/>
        <path class="st13" d="M1149.45,1222.54h-36.86c-6.79,0-12.29-5.5-12.29-12.29v-61.43c0-6.79,5.5-12.29,12.29-12.29h36.86v12.29h-36.86v61.43h36.86v12.29Z"/>
      </g>
      <g>
        <path class="st13" d="M867.05,1090.14c-2.2,0-4.36-.57-6.28-1.66l-108.33-61.39c-3.99-2.26-6.46-6.5-6.47-11.09v-127.5c0-4.59,2.47-8.83,6.47-11.09l108.33-61.39c3.9-2.2,8.66-2.2,12.56,0l108.33,61.39c3.99,2.26,6.46,6.5,6.47,11.09v127.5c0,4.59-2.47,8.83-6.47,11.09l-108.33,61.39c-1.92,1.08-4.08,1.66-6.28,1.66h0ZM771.47,1008.56l95.58,54.17,95.58-54.17v-112.63l-95.58-54.17-95.58,54.17v112.63Z"/>
        <path class="st13" d="M1051.85,914h-25.49v-120.07l-95.58-54.17-102.05,57.83-12.56-22.18,108.33-61.39c3.9-2.2,8.66-2.2,12.56,0l108.33,61.39c3.99,2.26,6.46,6.5,6.47,11.09v127.5h-.01Z"/>
        <rect id="_Transparent_Rectangle_" class="st0" x="695" y="697.25" width="407.83" height="408"/>
      </g>
      <g>
        <path class="st13" d="M281,261.94H73v-6.5c0-8.83,7.17-16,16-16h176c8.83,0,16,7.17,16,16v6.5h0Z"/>
        <path class="st4" d="M514.32,261v-29c0-8.84-7.15-16-15.98-16h-175.79c-8.83,0-15.98,7.16-15.98,16v29"/>
        <path class="st4" d="M746.14,261v-29c0-8.84-7.16-16-16-16h-176c-8.84,0-16,7.16-16,16v29"/>
        <path class="st4" d="M978.25,261v-29c0-8.84-7.16-16-16-16h-176c-8.84,0-16,7.16-16,16v29"/>
        <path class="st4" d="M1211.29,261v-29c0-8.84-7.16-16-16-16h-176c-8.84,0-16,7.16-16,16v29"/>
        <path class="st4" d="M1443.86,261v-29c0-8.84-7.16-16-16-16h-176c-8.84,0-16,7.16-16,16v29"/>
        <path class="st4" d="M1676.43,261v-29c0-8.84-7.16-16-16-16h-176c-8.84,0-16,7.16-16,16v29"/>
        <path class="st4" d="M1794,216h-77c-8.84,0-16,7.16-16,16v29"/>
        <path class="st4" d="M117.66-46.87l122.18,160.75c22.35,29.01,19.74,70.14-6.18,96.05-19.02,19.02-43.98,28.53-68.71,28.53s-49.69-9.51-68.71-28.53L-.62,108.22"/>
        <path class="st4" d="M165,40.68c2.14-1.19,4.75-1.66,7.13-1.66h10.69l57.02,74.86c8.97,11.64,13.91,25.24,14.94,39.02h-15.61c-21.87,0-41.85-12.36-51.83-31.86l-29.48-58.96c-4.04-7.85-.71-17.59,7.13-21.4"/>
      </g>
      <g>
        <path class="st2" d="M191.05,1348.25v132H59.05"/>
        <path class="st2" d="M191.05,1480.25l-132-132"/>
      </g>
    </g>
  </g>
  <path class="st17" d="M1792,2v1790H2V2h1790M1794,0H0v1794h1794V0h0Z"/>
</svg>